<?xml version="1.0" encoding="utf-8"?>
<!-- Generator: Adobe Illustrator 17.1.0, SVG Export Plug-In . SVG Version: 6.00 Build 0)  -->
<!DOCTYPE svg PUBLIC "-//W3C//DTD SVG 1.1//EN" "http://www.w3.org/Graphics/SVG/1.1/DTD/svg11.dtd">
<svg version="1.1" xmlns="http://www.w3.org/2000/svg" xmlns:xlink="http://www.w3.org/1999/xlink" x="0px" y="0px"
	 viewBox="0 0 203 212.3" enable-background="new 0 0 203 212.3" xml:space="preserve">
<g id="BG">
</g>
<g id="ARTWORK">
	<g>
		<path d="M85,136.4c8.3,5.8,18.5,8.9,29.5,8.2c23.3-1.5,42.1-20.6,43.1-44c1.2-27.1-21-49.4-48.2-48.3c-24.3,1-44.2,22.4-44.2,46.8
			V146c0,3.3-4.1,5-6.4,2.5c-12.6-13.2-20.3-31.3-20-51.1c0.5-39.1,32.4-71.1,71.6-71.6C151,25.3,184,58,184,98.5
			c0,40.1-32.5,72.6-72.6,72.6c-1.1,0-2.1,0-3.2-0.1c-1.8-0.1-3.4,1.4-3.4,3.3v0.1c0,1.7,1.4,3.2,3.1,3.3c1.2,0,2.3,0.1,3.5,0.1
			c47.4,0,85.8-38.4,85.8-85.8S158.8,8.2,111.4,6.1C53.1,6.7,5.8,53.3,5.8,111.7c0,39.6,21.8,74.3,54.1,92.4
			c11.2,6.3,25.1-1.8,25.1-14.7L85,136.4z"/>
	</g>
</g>
</svg>
