<?xml version="1.0" encoding="utf-8"?>
<!-- Generator: Adobe Illustrator 17.1.0, SVG Export Plug-In . SVG Version: 6.00 Build 0)  -->
<!DOCTYPE svg PUBLIC "-//W3C//DTD SVG 1.1//EN" "http://www.w3.org/Graphics/SVG/1.1/DTD/svg11.dtd">
<svg version="1.1" xmlns="http://www.w3.org/2000/svg" xmlns:xlink="http://www.w3.org/1999/xlink" x="0px" y="0px"
	 viewBox="0 0 623 273.7" enable-background="new 0 0 623 273.7" xml:space="preserve">
<g id="BG">
</g>
<g id="ARTWORK">
	<g>
		<g>
			<path fill="#FFFFFF" d="M293.7,85.6h36.6c22.2,0,37.4,11.4,37.4,30.8v0.3c0,21.2-18.3,32.1-39.3,32.1h-27.2v37.6h-7.5V85.6z
				 M328.8,141.9c18.7,0,31.4-9.8,31.4-24.8v-0.3c0-16-12.4-24.3-30.5-24.3h-28.5v49.4H328.8z"/>
			<path fill="#FFFFFF" d="M382.6,149.9v-0.3c0-20.6,16-38.4,37.9-38.4c21.7,0,37.6,17.6,37.6,38.2v0.3c0,20.6-16,38.4-37.9,38.4
				C398.4,188.1,382.6,170.5,382.6,149.9z M450.4,149.9v-0.3c0-17.7-13.2-31.8-30.2-31.8c-17.4,0-29.9,14.3-29.9,31.5v0.3
				c0,17.7,13.2,31.8,30.2,31.8C437.8,181.5,450.4,167.2,450.4,149.9z"/>
			<path fill="#FFFFFF" d="M479.8,112.9h7.1v20.9c5.8-13.1,18-22.6,32.5-22v7.8h-0.7c-17,0-31.8,12.8-31.8,36.7v30.1h-7.1V112.9z"/>
			<path fill="#FFFFFF" d="M541.2,167.5v-48.1h-10.7v-6.5h10.7V89.5h7.1v23.5h25.8v6.5h-25.8v47.4c0,10.5,6.2,14.3,14.7,14.3
				c3.6,0,6.6-0.7,10.8-2.6v6.6c-3.7,1.7-7.3,2.6-12,2.6C550.5,187.7,541.2,181.5,541.2,167.5z"/>
		</g>
		<path fill="#FFFFFF" d="M128.1,167.1c8.3,5.8,18.5,8.9,29.5,8.2c23.3-1.5,42.1-20.6,43.1-44c1.2-27.1-21-49.4-48.2-48.3
			c-24.3,1-44.2,22.4-44.2,46.8v46.9c0,3.3-4.1,5-6.4,2.5c-12.6-13.2-20.3-31.3-20-51.1c0.5-39.1,32.4-71.1,71.6-71.6
			c40.6-0.6,73.6,32.2,73.6,72.6c0,40.1-32.5,72.6-72.6,72.6c-1.1,0-2.1,0-3.2-0.1c-1.8-0.1-3.4,1.4-3.4,3.3v0.1
			c0,1.7,1.4,3.2,3.1,3.3c1.2,0,2.3,0.1,3.5,0.1c47.4,0,85.8-38.4,85.8-85.8s-38.5-83.7-85.8-85.8C96.2,37.4,48.9,84,48.9,142.4
			c0,39.6,21.8,74.3,54.1,92.4c11.2,6.3,25.1-1.8,25.1-14.7L128.1,167.1z"/>
	</g>
</g>
</svg>
